<?xml version="1.0" ?><svg height="24" id="svg4647" version="1.1" viewBox="0 0 6.3499999 6.3500002" width="24" xmlns="http://www.w3.org/2000/svg" xmlns:cc="http://creativecommons.org/ns#" xmlns:dc="http://purl.org/dc/elements/1.1/" xmlns:inkscape="http://www.inkscape.org/namespaces/inkscape" xmlns:rdf="http://www.w3.org/1999/02/22-rdf-syntax-ns#" xmlns:sodipodi="http://sodipodi.sourceforge.net/DTD/sodipodi-0.dtd" xmlns:svg="http://www.w3.org/2000/svg"><defs id="defs4641"/><g id="layer1" transform="translate(0,-290.64999)"><path d="M 1.058333,234.10475 C 0.47201702,234.10475 2.4999999e-8,234.57677 2.4999999e-8,235.16308 v 4.23334 c 0,0.58631 0.472016995000001,1.05833 1.058332975000001,1.05833 h 4.233334 c 0.586317,0 1.058333,-0.47202 1.058333,-1.05833 v -4.23334 c 0,-0.58631 -0.472016,-1.05833 -1.058333,-1.05833 z m 0.794267,1.05833 h 2.644283 c 0.435161,0 0.795301,0.35808 0.795301,0.79324 v 2.64635 c 0,0.43516 -0.36014,0.79271 -0.795301,0.79271 H 1.8526 c -0.435161,0 -0.794783,-0.35755 -0.794783,-0.79271 v -2.64635 c 0,-0.43516 0.359622,-0.79324 0.794783,-0.79324 z m 0,0.52969 c -0.151155,0 -0.265617,0.11239 -0.265617,0.26355 v 2.64635 c 0,0.15115 0.114462,0.26355 0.265617,0.26355 h 2.644283 c 0.151156,0 0.266134,-0.1124 0.266134,-0.26355 v -2.64635 c 0,-0.15116 -0.114978,-0.26355 -0.266134,-0.26355 z m 2.380734,0.26406 a 0.26458334,0.26458334 0 0 1 0.264583,0.26459 0.26458334,0.26458334 0 0 1 -0.264583,0.26458 0.26458334,0.26458334 0 0 1 -0.264584,-0.26458 0.26458334,0.26458334 0 0 1 0.264584,-0.26459 z M 3.175,236.22193 c 0.581368,0 1.058334,0.47697 1.058334,1.05834 0,0.58136 -0.476966,1.05885 -1.058334,1.05885 -0.581367,0 -1.05885,-0.47749 -1.05885,-1.05885 0,-0.58137 0.477483,-1.05834 1.05885,-1.05834 z m 0,0.52917 c -0.295384,0 -0.529683,0.23378 -0.529683,0.52917 0,0.29538 0.234299,0.52968 0.529683,0.52968 0.295385,0 0.529167,-0.2343 0.529167,-0.52968 0,-0.29539 -0.233782,-0.52917 -0.529167,-0.52917 z" id="rect4598" style="opacity:1;fill:#333333;fill-opacity:1;stroke:none;stroke-width:0.26458335;stroke-linecap:butt;stroke-linejoin:miter;stroke-miterlimit:4;stroke-dasharray:none;stroke-dashoffset:0;stroke-opacity:1"/><path d="M 1.0583333,290.64999 C 0.47201669,290.64999 1.9999998e-8,291.12201 1.9999998e-8,291.70832 v 4.23334 c 0,0.58631 0.472016670000002,1.05833 1.058333280000002,1.05833 h 4.2333334 c 0.5863167,0 1.0583333,-0.47202 1.0583333,-1.05833 v -4.23334 c 0,-0.58631 -0.4720166,-1.05833 -1.0583333,-1.05833 z m 0.8774669,1.19063 h 2.4783997 c 0.4078631,0 0.7451751,0.33731 0.7451751,0.74517 v 2.4784 c 0,0.40786 -0.337312,0.74518 -0.7451751,0.74518 H 1.9358002 c -0.4078632,0 -0.7451752,-0.33732 -0.7451752,-0.74518 v -2.4784 c 0,-0.40786 0.337312,-0.74517 0.7451752,-0.74517 z m 0,0.49609 c -0.1416738,0 -0.2490814,0.10741 -0.2490814,0.24908 v 2.4784 c 0,0.14168 0.1074049,0.24908 0.2490814,0.24908 h 2.4783997 c 0.1416738,0 0.2495973,-0.10741 0.2495973,-0.24908 v -2.4784 c 0,-0.14167 -0.1079235,-0.24908 -0.2495973,-0.24908 z m 2.2313873,0.24856 a 0.24798634,0.24798634 0 0 1 0.2480469,0.24753 0.24798634,0.24798634 0 0 1 -0.2480469,0.24805 0.24798634,0.24798634 0 0 1 -0.2480468,-0.24805 0.24798634,0.24798634 0 0 1 0.2480468,-0.24753 z M 3.175,292.8328 c 0.5448988,0 0.9921875,0.44729 0.9921875,0.99219 0,0.5449 -0.4472887,0.99219 -0.9921875,0.99219 -0.5448988,0 -0.9921875,-0.44729 -0.9921875,-0.99219 0,-0.5449 0.4472887,-0.99219 0.9921875,-0.99219 z m 0,0.49558 c -0.2768573,0 -0.4960937,0.21975 -0.4960937,0.49661 0,0.27686 0.2192364,0.49609 0.4960937,0.49609 0.2768547,0 0.4960938,-0.21923 0.4960938,-0.49609 0,-0.27686 -0.2192391,-0.49661 -0.4960938,-0.49661 z" id="rect5236" style="opacity:1;fill:#333333;fill-opacity:1;stroke:none;stroke-width:0.26458335;stroke-linecap:butt;stroke-linejoin:miter;stroke-miterlimit:4;stroke-dasharray:none;stroke-dashoffset:0;stroke-opacity:1"/></g></svg>